# xmcd
#
# Track frame offsets:
#	150
#	15359
#	31950
#	46410
#	62728
#	78684
#	100493
#	119773
#	143852
#	168372
#	196747
#	215810
#	235509
#	248891
#	269448
#	287210
#	310143
#
# Disc length: 4310 seconds
#
# Revision: 1
# Processed by: cddbd v1.5.2PL0 Copyright (c) Steve Scherf et al.
# Submitted via: audiograbber 1.83.01
#
DISCID=f810d411
DTITLE=Bill Allred's Classisc Jazz Band - 2 the Max
DYEAR=2003
DGENRE=Jazz
TTITLE0=Matty's Royal Garden Blues
TTITLE1=Song Of India
TTITLE2=Jumpin' At the Woodside
TTITLE3=New Orleans
TTITLE4=April In Paris
TTITLE5=Blue Skies
TTITLE6=Late Date
TTITLE7=Makin' Whoopee
TTITLE8=The Mooch
TTITLE9=Skyliner
TTITLE10=You Took Advantage Of Me
TTITLE11=Singin' The Blues
TTITLE12=The Kid From Burbank(Redbank)
TTITLE13=I Cover The Waterfront
TTITLE14=Davenport Blues
TTITLE15=The Battle Hymn Of The Republic
TTITLE16=America The Beautiful
EXTD=YEAR: 2003
EXTT0=
EXTT1=
EXTT2=
EXTT3=
EXTT4=
EXTT5=
EXTT6=
EXTT7=
EXTT8=
EXTT9=
EXTT10=
EXTT11=
EXTT12=
EXTT13=
EXTT14=
EXTT15=
EXTT16=
PLAYORDER=
